<svg xmlns="http://www.w3.org/2000/svg" width="53.222" height="29.418" viewBox="0 0 53.222 29.418"><defs><style>.a{fill:#1d252e;}.b{fill:#e56919;}</style></defs><g transform="translate(-4 -5.8)"><path class="a" d="M102.531,28.9a7.107,7.107,0,0,1-4.561-1.6l-.542-.452-.655,1.513-3.274.023V5.8h4.47v8.421l.813-.5a7.145,7.145,0,0,1,3.748-1.039,8.028,8.028,0,0,1,5.757,2.258,8.212,8.212,0,0,1,2.235,5.825C110.523,25.577,107.249,28.9,102.531,28.9Zm-.745-12.327a4.1,4.1,0,0,0-4.154,4.222,4.155,4.155,0,1,0,8.308,0A4.1,4.1,0,0,0,101.786,16.569Z" transform="translate(-69.294 0)"/><rect class="b" width="4.47" height="4.47" transform="translate(52.752 24.823)"/><g transform="translate(41.117 5.823)"><rect class="b" width="4.47" height="4.47" transform="translate(3.341 0)"/><path class="a" d="M171.741,35.4V51.926h0a2.366,2.366,0,0,1-2.348,2.371H168.4v3.838h2.325a5.492,5.492,0,0,0,5.486-5.486h0V35.4Z" transform="translate(-168.4 -28.74)"/></g><g transform="translate(4 12.46)"><path class="b" d="M8.786,45.369a4.665,4.665,0,0,1-.474-2.055,4.051,4.051,0,0,1,4.132-4.244,4.268,4.268,0,0,1,2.1.542l2.89-2.89a9,9,0,0,0-4.99-1.422C7.545,35.3,4,38.687,4,43.315a7.813,7.813,0,0,0,1.784,5.08Z" transform="translate(-4 -35.3)"/><path class="a" d="M27.87,51.28a4.5,4.5,0,0,1,.474,2.1,4.245,4.245,0,0,1-1.174,3.048,4.088,4.088,0,0,1-2.958,1.2h0a4.219,4.219,0,0,1-2.145-.564L19.2,59.95a9.089,9.089,0,0,0,5.012,1.445c4.9,0,8.444-3.364,8.444-7.992a7.77,7.77,0,0,0-1.806-5.1Z" transform="translate(-15.768 -45.365)"/></g></g></svg>